<?xml version="1.0" standalone="no"?><!DOCTYPE svg PUBLIC "-//W3C//DTD SVG 1.1//EN" "http://www.w3.org/Graphics/SVG/1.1/DTD/svg11.dtd"><svg t="1668234950529" class="icon" viewBox="0 0 1024 1024" version="1.1" xmlns="http://www.w3.org/2000/svg" p-id="1296" xmlns:xlink="http://www.w3.org/1999/xlink" width="200" height="200"><path d="M513.3312 512m-436.2752 0a436.2752 436.2752 0 1 0 872.5504 0 436.2752 436.2752 0 1 0-872.5504 0Z" fill="#C5FFE6" p-id="1297"></path><path d="M821.248 483.6864c0-65.0752-48.8448-118.7328-111.8208-126.4128V231.5264c0-20.992-17.3568-37.9904-38.5024-37.3248-20.4288 0.6144-36.1984 18.432-36.1984 38.912v18.5344c0 10.5472-5.5296 20.3264-14.5408 25.8048-48.7424 29.696-92.3136 63.0272-176.896 63.0272H309.7088c-59.4944 0-107.7248 48.2304-107.7248 107.7248v74.7008c0 59.1872 47.7696 107.2128 106.8544 107.6736l36.1472 165.6832a42.624 42.624 0 0 0 41.6768 33.536h42.752c10.2912 0 18.688-8.3456 18.688-18.688V630.784c73.984 1.6384 120.7808 40.3968 172.3904 72.8064a30.3104 30.3104 0 0 1 14.2336 25.6v13.056c0 20.4288 15.7696 38.2976 36.1984 38.912 21.1456 0.6144 38.5024-16.3328 38.5024-37.3248v-133.7856c62.976-7.6288 111.8208-61.2864 111.8208-126.3616z" fill="#4FE99D" p-id="1298"></path><path d="M443.2896 340.48H371.5584a436.18304 436.18304 0 0 0-169.5744 107.1104c0 0.2048-0.0512 0.4096-0.0512 0.6656v74.7008c0 59.1872 47.7696 107.2128 106.8544 107.6736l36.1472 165.6832a42.624 42.624 0 0 0 41.6768 33.536h42.752c10.2912 0 18.688-8.3456 18.688-18.688V630.784c73.984 1.6384 120.7808 40.3968 172.3904 72.8064a30.3104 30.3104 0 0 1 14.2336 25.6v13.056c0 20.4288 15.7696 38.2976 36.1984 38.912 21.1456 0.6144 38.5024-16.3328 38.5024-37.3248v-133.7856c63.0272-7.68 111.8208-61.2864 111.8208-126.4128 0-17.4592-3.6352-34.0992-9.984-49.2544-69.888-65.3824-161.2288-107.9296-262.3488-116.1216-28.3648 13.056-61.3376 22.2208-105.5744 22.2208z" fill="#4CE09A" p-id="1299"></path><path d="M513.3312 380.16c-121.9584 0-232.192 50.1248-311.3984 130.816v11.9296c0 59.1872 47.7696 107.2128 106.8544 107.6736l36.1472 165.6832a42.624 42.624 0 0 0 41.6768 33.536h42.752c10.2912 0 18.688-8.3456 18.688-18.688V630.784c73.984 1.6384 120.7808 40.3968 172.3904 72.8064a30.3104 30.3104 0 0 1 14.2336 25.6v13.056c0 20.4288 15.7696 38.2976 36.1984 38.912 21.1456 0.6144 38.5024-16.3328 38.5024-37.3248v-133.7856c55.808-6.8096 100.4032-49.664 109.8752-104.6016-78.6944-77.4144-186.6752-125.2864-305.92-125.2864z" fill="#45DDA3" p-id="1300"></path><path d="M513.3312 443.4944c-117.504 0-224.1024 46.5408-302.5408 122.112 16.4352 37.9904 54.0672 64.6144 97.9968 64.9728l36.1472 165.6832a42.624 42.624 0 0 0 41.6768 33.536h42.752c10.2912 0 18.688-8.3456 18.688-18.688V630.784c73.984 1.6384 120.7808 40.3968 172.3904 72.8064a30.3104 30.3104 0 0 1 14.2336 25.6v13.056c0 20.4288 15.7696 38.2976 36.1984 38.912 21.1456 0.6144 38.5024-16.3328 38.5024-37.3248v-133.7856c38.6048-4.7104 71.8336-26.7264 91.8016-57.9584-76.8-67.5328-177.5104-108.5952-287.8464-108.5952z" fill="#48D3A1" p-id="1301"></path><path d="M513.3312 506.88c-103.9872 0-199.424 36.4544-274.3808 97.1776a107.2128 107.2128 0 0 0 53.8112 25.2416c9.728 1.536 17.6128 8.6528 19.712 18.2272l32.4608 148.736a42.67008 42.67008 0 0 0 41.6768 33.5872h42.752c10.2912 0 18.688-8.3456 18.688-18.688v-137.5744c0-24.4224 23.04-42.496 46.6944-36.4032 48.896 12.5952 85.8624 41.4208 125.7472 66.4576a30.26432 30.26432 0 0 1 14.1824 25.6v13.056c0 20.4288 15.7696 38.2976 36.1984 38.912 21.1456 0.6144 38.5024-16.3328 38.5024-37.3248v-133.7856c21.1456-2.56 40.6016-10.3936 57.2416-22.016C695.2448 537.0368 607.8464 506.88 513.3312 506.88z" fill="#3ACC9B" p-id="1302"></path><path d="M370.944 579.3792c-16.9472 0-30.72-13.7728-30.72-30.72V428.2368c0-16.9472 13.7728-30.72 30.72-30.72s30.72 13.7728 30.72 30.72v120.4224c0 16.9472-13.7728 30.72-30.72 30.72z" fill="#FFFFFF" p-id="1303"></path></svg>