<?xml version="1.0" standalone="no"?><!DOCTYPE svg PUBLIC "-//W3C//DTD SVG 1.1//EN" "http://www.w3.org/Graphics/SVG/1.1/DTD/svg11.dtd"><svg class="icon" width="200px" height="200.00px" viewBox="0 0 1024 1024" version="1.1" xmlns="http://www.w3.org/2000/svg"><path d="M512 0c282.76736 0 512 229.23264 512 512s-229.23264 512-512 512S0 794.76736 0 512 229.23264 0 512 0z" fill="#4681A0" /><path d="M747.52 542.72H276.48a92.16 92.16 0 0 0-92.16 92.16l0.22528 71.68H184.32a51.2 51.2 0 0 0 51.2 51.2h552.96a51.2 51.2 0 0 0 51.2-51.2v-71.68a92.16 92.16 0 0 0-92.16-92.16z" fill="#EFC75E" /><path d="M184.92416 624.64A91.4944 91.4944 0 0 0 184.32 634.88l0.03072 10.24H839.68v-10.24c0-3.46112-0.22528-6.87104-0.60416-10.24H184.92416z" fill="#C19D3D" /><path d="M184.92416 624.64h654.16192c-5.09952-46.08-44.12416-81.92-91.55584-81.92H276.48c-47.43168 0-86.45632 35.84-91.55584 81.92z" fill="#D7B354" /><path d="M564.92032 225.28c-10.63936-18.28864-30.23872-30.72-52.92032-30.72s-42.28096 12.43136-52.92032 30.72h-33.88416c12.65664-35.76832 46.6944-61.44 86.80448-61.44s74.1376 25.67168 86.80448 61.44h-33.88416z" fill="#EFC75E" /><path d="M593.92 225.28H430.08c-101.79584 0-184.32 82.52416-184.32 184.32v327.68a92.16 92.16 0 0 0 92.16 92.16h348.16a92.16 92.16 0 0 0 92.16-92.16V409.6c0-101.79584-82.52416-184.32-184.32-184.32z" fill="#F4F0D3" /><path d="M368.64 501.76h286.72a51.2 51.2 0 0 1 51.2 51.2v153.6a51.2 51.2 0 0 1-51.2 51.2H368.64a51.2 51.2 0 0 1-51.2-51.2V552.96a51.2 51.2 0 0 1 51.2-51.2z" fill="#EFC75E" /><path d="M576.88064 352.43008l-48.66048-48.65024a22.92736 22.92736 0 0 0-32.43008 0l-48.65024 48.65024a22.92736 22.92736 0 0 0 0 32.43008l48.65024 48.65024a22.92736 22.92736 0 0 0 32.43008 0l48.66048-48.65024a22.92736 22.92736 0 0 0 0-32.43008zM501.76 378.88a10.24 10.24 0 1 1-20.48 0v-20.48a10.24 10.24 0 1 1 20.48 0v20.48z m40.96 0a10.24 10.24 0 1 1-20.48 0v-20.48a10.24 10.24 0 1 1 20.48 0v20.48z" fill="#CA824F" /><path d="M378.88 552.96h266.24a10.24 10.24 0 1 1 0 20.48H378.88a10.24 10.24 0 1 1 0-20.48z" fill="#C19D3D" /><path d="M276.48 737.28V409.6c0-101.79584 82.52416-184.32 184.32-184.32h-30.72c-101.79584 0-184.32 82.52416-184.32 184.32v327.68a92.16 92.16 0 0 0 92.16 92.16h30.72a92.16 92.16 0 0 1-92.16-92.16z" fill="#DBD8BD" /><path d="M337.92 706.56V552.96a51.2 51.2 0 0 1 51.2-51.2h-20.48a51.2 51.2 0 0 0-51.2 51.2v153.6a51.2 51.2 0 0 0 51.2 51.2h20.48a51.2 51.2 0 0 1-51.2-51.2z" fill="#D7B354" /></svg>