<?xml version="1.0" standalone="no"?><!DOCTYPE svg PUBLIC "-//W3C//DTD SVG 1.1//EN" "http://www.w3.org/Graphics/SVG/1.1/DTD/svg11.dtd"><svg class="icon" width="200px" height="200.00px" viewBox="0 0 1024 1024" version="1.1" xmlns="http://www.w3.org/2000/svg"><path d="M512 0c282.76736 0 512 229.23264 512 512s-229.23264 512-512 512S0 794.76736 0 512 229.23264 0 512 0z" fill="#4681A0" /><path d="M655.4624 652.8l-0.21504-15.36c0.34816 0 34.9184-0.70656 68.78208-18.01216C768.49152 596.71552 791.04 557.12768 791.04 501.76h15.36c0 147.41504-149.43232 151.01952-150.9376 151.04z" fill="#FFFFFF" /><path d="M665.7024 663.04l-0.21504-15.36c0.34816 0 34.9184-0.70656 68.78208-18.01216C778.73152 606.95552 801.28 567.36768 801.28 512h15.36c0 147.41504-149.43232 151.01952-150.9376 151.04z" fill="#3F7490" /><path d="M808.96 460.8a30.73024 30.73024 0 0 1 0 61.44 30.72 30.72 0 0 1 0-61.44z" fill="#D5D5D5" /><path d="M327.68 624.64h368.64a40.96 40.96 0 0 1 40.96 40.96v102.4a40.96 40.96 0 0 1-40.96 40.96H327.68a40.96 40.96 0 0 1-40.96-40.96V665.6a40.96 40.96 0 0 1 40.96-40.96z" fill="#BDBDBD" /><path d="M491.52 215.04c124.416 0 225.28 100.864 225.28 225.28s-100.864 225.28-225.28 225.28-225.28-100.864-225.28-225.28 100.864-225.28 225.28-225.28z" fill="#3F7490" /><path d="M327.68 593.92h368.64a40.96 40.96 0 0 1 40.96 40.96v102.4a40.96 40.96 0 0 1-40.96 40.96H327.68a40.96 40.96 0 0 1-40.96-40.96V634.88a40.96 40.96 0 0 1 40.96-40.96z" fill="#D5D5D5" /><path d="M327.68 593.92l-0.80896 0.08192C367.98464 638.04416 426.51648 665.6 491.52 665.6c65.04448 0 123.60704-27.5968 164.73088-71.68H327.68z" fill="#BFBFBF" /><path d="M327.68 624.64a10.24 10.24 0 1 0 0 20.48 10.24 10.24 0 0 0 0-20.48z m368.64 20.48a10.24 10.24 0 1 0 0.02048-20.45952A10.24 10.24 0 0 0 696.32 645.12z m0 81.92a10.24 10.24 0 1 0 0 20.48 10.24 10.24 0 0 0 0-20.48z m-368.64 0a10.24 10.24 0 1 0 0 20.48 10.24 10.24 0 0 0 0-20.48z" fill="#A4A4A4" /><path d="M512 194.56c124.416 0 225.28 100.864 225.28 225.28s-100.864 225.28-225.28 225.28-225.28-100.864-225.28-225.28 100.864-225.28 225.28-225.28z" fill="#F0C75E" /><path d="M501.76 399.36a30.73024 30.73024 0 0 1 0 61.44 30.72 30.72 0 0 1 0-61.44z" fill="#D9B455" /><path d="M512 389.12a30.73024 30.73024 0 0 1 0 61.44 30.72 30.72 0 0 1 0-61.44z" fill="#F5D88F" /><path d="M819.2 512a30.72 30.72 0 0 1-30.72-30.72c0-5.84704 1.72032-11.264 4.5568-15.91296A30.6176 30.6176 0 0 0 778.24 491.52a30.62784 30.62784 0 1 0 56.8832 15.91296A30.4128 30.4128 0 0 1 819.2 512z" fill="#BABABA" /><path d="M512 389.12a30.59712 30.59712 0 0 0-26.15296 14.80704A30.3616 30.3616 0 0 1 501.76 399.36c16.95744 0 30.72 13.76256 30.72 30.72 0 5.84704-1.72032 11.264-4.5568 15.91296A30.6176 30.6176 0 0 0 542.72 419.84c0-16.95744-13.76256-30.72-30.72-30.72z" fill="#F7E4B0" /><path d="M542.72 593.92c-124.416 0-225.28-100.864-225.28-225.28 0-31.62112 6.54336-61.71648 18.30912-89.02656A224.256 224.256 0 0 0 286.72 419.84c0 124.416 100.864 225.28 225.28 225.28 92.79488 0 172.46208-56.1152 206.97088-136.25344C677.70368 560.68096 614.11328 593.92 542.72 593.92z" fill="#DFB957" /></svg>