<?xml version="1.0" standalone="no"?><!DOCTYPE svg PUBLIC "-//W3C//DTD SVG 1.1//EN" "http://www.w3.org/Graphics/SVG/1.1/DTD/svg11.dtd"><svg t="1668232564552" class="icon" viewBox="0 0 1024 1024" version="1.1" xmlns="http://www.w3.org/2000/svg" p-id="1131" xmlns:xlink="http://www.w3.org/1999/xlink" width="200" height="200"><path d="M406.016 447.488m-205.312 0a205.312 205.312 0 1 0 410.624 0 205.312 205.312 0 1 0-410.624 0Z" fill="#FFD500" p-id="1132"></path><path d="M272.384 221.184c2.048 4.608 6.656 7.168 11.264 7.168 2.048 0 4.096-0.512 5.632-1.536 6.144-3.072 8.704-10.752 5.632-17.408l-22.016-43.52c-3.072-6.144-10.752-8.704-17.408-5.632-6.144 3.072-8.704 10.752-5.632 17.408l22.528 43.52zM155.136 382.464c5.12 0 10.24-3.584 12.288-8.704 2.048-6.656-1.536-13.824-8.192-16.384l-46.08-15.36c-6.656-2.048-13.824 1.536-16.384 8.192-2.048 6.656 1.536 13.824 8.192 16.384l46.08 15.36c1.536 0 2.56 0.512 4.096 0.512zM167.424 558.08l-43.52 22.016c-6.144 3.072-8.704 10.752-5.632 17.408 2.048 4.608 6.656 7.168 11.264 7.168 2.048 0 4.096-0.512 5.632-1.536l43.52-22.016c6.144-3.072 8.704-10.752 5.632-17.408-2.56-6.144-10.24-8.704-16.896-5.632zM331.776 686.08c-6.656-2.048-13.824 1.536-16.384 8.192l-15.36 46.08c-2.048 6.656 1.536 13.824 8.192 16.384 1.536 0.512 2.56 0.512 4.096 0.512 5.12 0 10.24-3.584 12.288-8.704l15.36-46.08c2.048-6.656-1.536-13.824-8.192-16.384zM539.136 674.304c-3.072-6.144-10.752-8.704-17.408-5.632-6.144 3.072-8.704 10.752-5.632 17.408l22.016 43.52c2.048 4.608 6.656 7.168 11.264 7.168 2.048 0 4.096-0.512 5.632-1.536 6.144-3.072 8.704-10.752 5.632-17.408l-21.504-43.52zM706.56 528.896l-46.08-15.36c-6.656-2.048-13.824 1.536-16.384 8.192-2.048 6.656 1.536 13.824 8.192 16.384l46.08 15.36c1.536 0.512 2.56 0.512 4.096 0.512 5.12 0 10.24-3.584 12.288-8.704 2.56-6.656-1.024-13.824-8.192-16.384zM687.616 315.392c6.144-3.072 8.704-10.752 5.632-17.408-3.072-6.144-10.752-8.704-17.408-5.632l-43.52 22.016c-6.144 3.072-8.704 10.752-5.632 17.408 2.048 4.608 6.656 7.168 11.264 7.168 2.048 0 4.096-0.512 5.632-1.536l44.032-22.016zM479.744 209.408c1.536 0.512 2.56 0.512 4.096 0.512 5.12 0 10.24-3.584 12.288-8.704l15.36-46.08c2.048-6.656-1.536-13.824-8.192-16.384-6.656-2.048-13.824 1.536-16.384 8.192l-15.36 46.08c-2.048 6.656 1.536 13.824 8.192 16.384z" fill="#FFD500" p-id="1133"></path><path d="M406.016 242.176c-113.664 0-205.312 92.16-205.312 205.312v6.656c28.16 0 50.176-15.36 60.416-36.864 24.064-50.688 60.416-64 158.72-69.632 76.288-4.096 94.208-48.64 98.304-72.192-32.256-20.992-70.656-33.28-112.128-33.28z" fill="#FFED78" p-id="1134"></path><path d="M417.28 522.752c-103.424-15.872-133.12 56.32-132.096 91.136 33.792 24.576 75.264 38.912 120.32 38.912 3.584 0 6.656 0 10.24-0.512h3.072c2.048 0 4.608-0.512 6.656-0.512 1.536 0 2.56-0.512 4.096-0.512 2.048 0 4.096-0.512 6.144-0.512 1.536 0 2.56-0.512 4.096-0.512 2.048-0.512 3.584-0.512 5.632-1.024 1.536-0.512 3.072-0.512 4.096-1.024 1.536-0.512 3.584-1.024 5.12-1.024 1.536-0.512 3.072-0.512 4.608-1.024 1.536-0.512 3.584-1.024 5.12-1.536l4.608-1.536 4.608-1.536 4.608-1.536c1.536-0.512 3.072-1.024 4.608-2.048 1.536-0.512 3.072-1.024 4.608-2.048 1.536-0.512 3.072-1.536 4.096-2.048 1.536-0.512 3.072-1.536 4.608-2.048 1.536-0.512 2.56-1.536 4.096-2.048 1.536-1.024 3.072-1.536 4.608-2.56 1.024-0.512 2.048-1.536 3.584-2.048 1.536-1.024 3.072-2.048 5.12-3.072 0.512-0.512 1.536-1.024 2.048-1.536 9.216-5.632 17.92-12.288 26.112-19.456 0.512-0.512 1.024-0.512 1.024-1.024 2.048-1.536 3.584-3.072 5.632-5.12l1.536-1.536 5.12-5.12 1.536-1.536c1.536-1.536 3.072-3.584 4.608-5.632l1.536-1.536c1.536-2.048 3.072-3.584 4.608-5.632 0.512-0.512 0.512-1.024 1.024-1.536l4.608-6.144c0.512-0.512 0.512-1.024 1.024-1.024 1.536-2.048 3.072-4.096 4.608-6.656 0-0.512 0.512-0.512 0.512-1.024 1.536-2.56 3.072-4.608 4.608-7.168 13.824-23.552 23.04-50.688 26.624-78.848-20.992 35.328-73.216 69.632-193.024 51.2z" fill="#FFED78" p-id="1135"></path><path d="M825.344 624.64c0-4.096 0.512-7.68 0.512-11.776 0-111.616-90.624-202.24-202.24-202.24-61.44 0-116.224 27.136-153.088 70.656-14.336-4.608-29.184-7.168-45.056-7.168-78.336 0-141.312 63.488-141.312 141.312 0 2.048 0 4.096 0.512 6.144-69.632 4.096-124.928 61.44-124.928 132.096s55.296 128 124.416 132.096l510.976 0.512c73.216 0 132.608-59.392 132.608-132.608 0.512-62.976-43.52-115.712-102.4-129.024" fill="#80AAFF" p-id="1136"></path><path d="M603.136 582.656c71.168 71.68 171.008 79.36 222.72 41.472 0-4.096 0.512-7.68 0.512-11.776 0-111.616-90.624-202.24-202.24-202.24-57.344 0-109.056 24.064-145.92 62.464L471.04 481.28s47.104 16.384 132.096 101.376z" fill="#B3CFFF" p-id="1137"></path><path d="M522.752 728.064c-171.52-122.88-237.568-106.496-237.568-106.496-69.632 4.096-124.928 61.44-124.928 132.096s55.296 128 124.416 132.096l510.976 0.512c73.216 0 132.608-59.392 132.608-132.608 0-29.696-9.728-57.344-26.624-79.36 23.04 91.648-213.504 172.032-378.88 53.76z" fill="#5886FC" p-id="1138"></path></svg>