<?xml version="1.0" standalone="no"?><!DOCTYPE svg PUBLIC "-//W3C//DTD SVG 1.1//EN" "http://www.w3.org/Graphics/SVG/1.1/DTD/svg11.dtd"><svg t="1668493701830" class="icon" viewBox="0 0 1024 1024" version="1.1" xmlns="http://www.w3.org/2000/svg" p-id="7388" xmlns:xlink="http://www.w3.org/1999/xlink" width="200" height="200"><path d="M793.6 395.776c0-4.096 0.512-7.68 0.512-11.776 0-111.616-90.624-202.24-202.24-202.24-61.44 0-116.224 27.136-153.088 70.656-14.336-4.608-29.184-7.168-45.056-7.168-78.336 0-141.312 63.488-141.312 141.312 0 2.048 0 4.096 0.512 6.144-69.632 4.096-124.928 61.44-124.928 132.096s55.296 128 124.416 132.096l510.976 0.512c73.216 0 132.608-59.392 132.608-132.608 0-62.464-43.52-115.2-102.4-129.024" fill="#80AAFF" p-id="7389"></path><path d="M570.88 354.304c71.168 71.68 171.008 79.36 222.72 41.472 0-4.096 0.512-7.68 0.512-11.776 0-111.616-90.624-202.24-202.24-202.24-57.344 0-109.056 24.064-145.92 62.464l-7.168 7.68c0 0.512 47.616 17.408 132.096 102.4z" fill="#B3CFFF" p-id="7390"></path><path d="M490.496 499.2c-171.52-122.88-237.568-106.496-237.568-106.496-69.632 4.096-124.928 61.44-124.928 132.096s55.296 128 124.416 132.096l510.976 0.512c73.216 0 132.608-59.392 132.608-132.608 0-29.696-9.728-57.344-26.624-79.36 23.04 92.16-212.992 172.544-378.88 53.76z" fill="#5886FC" p-id="7391"></path><path d="M541.184 759.808h-204.8c-7.168 0-12.8-5.632-12.8-12.8s5.632-12.8 12.8-12.8h204.8c7.168 0 12.8 5.632 12.8 12.8s-5.632 12.8-12.8 12.8zM715.264 759.808h-102.4c-7.168 0-12.8-5.632-12.8-12.8s5.632-12.8 12.8-12.8h102.4c7.168 0 12.8 5.632 12.8 12.8s-5.632 12.8-12.8 12.8z" fill="#52B0FF" p-id="7392"></path><path d="M460.8 841.728H256c-7.168 0-12.8-5.632-12.8-12.8s5.632-12.8 12.8-12.8h204.8c7.168 0 12.8 5.632 12.8 12.8s-5.632 12.8-12.8 12.8z" fill="#52B0FF" p-id="7393"></path><path d="M768 841.728h-204.8c-7.168 0-12.8-5.632-12.8-12.8s5.632-12.8 12.8-12.8h204.8c7.168 0 12.8 5.632 12.8 12.8s-5.632 12.8-12.8 12.8z" fill="#52B0FF" p-id="7394"></path></svg>