<?xml version="1.0" standalone="no"?><!DOCTYPE svg PUBLIC "-//W3C//DTD SVG 1.1//EN" "http://www.w3.org/Graphics/SVG/1.1/DTD/svg11.dtd"><svg t="1669449097054" class="icon" viewBox="0 0 1024 1024" version="1.1" xmlns="http://www.w3.org/2000/svg" p-id="2689" xmlns:xlink="http://www.w3.org/1999/xlink" width="200" height="200"><path d="M512 0c282.76736 0 512 229.23264 512 512s-229.23264 512-512 512S0 794.76736 0 512 229.23264 0 512 0z" fill="#4681A0" p-id="2690"></path><path d="M981.26848 716.8H42.72128C121.74336 897.59744 302.06976 1024 512 1024s390.25664-126.40256 469.26848-307.2z" fill="#3F7490" p-id="2691"></path><path d="M778.24 788.48H245.76a40.96 40.96 0 0 1-40.96-40.96V501.76c0-169.65632 137.54368-307.2 307.2-307.2s307.2 137.54368 307.2 307.2v245.76a40.96 40.96 0 0 1-40.96 40.96z" fill="#EDEDED" p-id="2692"></path><path d="M819.2 563.2H471.04a51.2 51.2 0 0 1-51.2-51.2c0-16.72192 8.1408-31.42656 20.54144-40.77568L440.32 471.04l231.59808-231.59808c-3.01056-1.8432-6.0928-3.584-9.17504-5.31456L433.08032 463.80032l-0.60416 0.60416A60.84608 60.84608 0 0 0 409.6 512c0 33.88416 27.55584 61.44 61.44 61.44h348.16v-10.24z" fill="#FFFFFF" p-id="2693"></path><path d="M819.2 501.76c0-111.07328-58.96192-208.36352-147.28192-262.31808L440.32 471.04l0.06144 0.18432C427.9808 480.57344 419.84 495.27808 419.84 512a51.2 51.2 0 0 0 51.2 51.2h348.16v-61.44z" fill="#93D3E8" p-id="2694"></path><path d="M471.04 481.28a30.72 30.72 0 1 1 0 61.44 30.72 30.72 0 0 1 0-61.44z" fill="#FFFFFF" p-id="2695"></path><path d="M819.2 563.2v-61.44c0-111.07328-58.96192-208.36352-147.28192-262.31808L634.88 276.48c74.60864 56.04352 122.88 145.26464 122.88 245.76v40.96h61.44z" fill="#A9DCED" p-id="2696"></path><path d="M204.8 716.8v30.72a40.96 40.96 0 0 0 40.96 40.96h532.48a40.96 40.96 0 0 0 40.96-40.96v-81.92H204.8v51.2z" fill="#EFC75E" p-id="2697"></path><path d="M307.2 747.52V501.76c0-152.20736 110.72512-278.48704 256-302.86848A307.98848 307.98848 0 0 0 512 194.56c-169.65632 0-307.2 137.54368-307.2 307.2v245.76a40.96 40.96 0 0 0 40.96 40.96h102.4a40.96 40.96 0 0 1-40.96-40.96z" fill="#D5D5D5" p-id="2698"></path><path d="M307.2 747.52v-81.92H204.8v81.92a40.96 40.96 0 0 0 40.96 40.96h102.4a40.96 40.96 0 0 1-40.96-40.96z m471.04 10.24H245.76a40.96 40.96 0 0 1-40.96-40.96v30.72a40.96 40.96 0 0 0 40.96 40.96h532.48a40.96 40.96 0 0 0 40.96-40.96v-30.72a40.96 40.96 0 0 1-40.96 40.96z" fill="#D7B354" p-id="2699"></path><path d="M308.65408 757.76H245.76a40.96 40.96 0 0 1-40.96-40.96v30.72a40.96 40.96 0 0 0 40.96 40.96h102.4a40.8576 40.8576 0 0 1-39.50592-30.72z" fill="#C1A14B" p-id="2700"></path><path d="M302.08 491.52a46.08 46.08 0 1 1 0 92.16 46.08 46.08 0 0 1 0-92.16z" fill="#E2574C" p-id="2701"></path><path d="M322.56 573.44a46.08 46.08 0 0 1-46.08-46.08c0-14.0288 6.41024-26.44992 16.30208-34.89792A46.08 46.08 0 0 0 302.08 583.68a45.69088 45.69088 0 0 0 29.77792-11.18208A45.6704 45.6704 0 0 1 322.56 573.44z" fill="#CB4E44" p-id="2702"></path></svg>