<?xml version="1.0" standalone="no"?><!DOCTYPE svg PUBLIC "-//W3C//DTD SVG 1.1//EN" "http://www.w3.org/Graphics/SVG/1.1/DTD/svg11.dtd"><svg t="1669449238916" class="icon" viewBox="0 0 1024 1024" version="1.1" xmlns="http://www.w3.org/2000/svg" p-id="4158" xmlns:xlink="http://www.w3.org/1999/xlink" width="200" height="200"><path d="M511.504496 0c282.493341 0 511.503841 229.0105 511.503841 511.503841 0 282.503572-229.0105 511.503841-511.503841 511.503842s-511.503841-229.00027-511.503841-511.503842c0-282.493341 229.00027-511.503841 511.503841-511.503841z" fill="#4681A0" p-id="4159"></path><path d="M5.668117 587.666763c35.805269 239.782771 238.012967 425.080152 485.365995 434.819186V287.240097l-184.141382-0.797946L5.668117 587.666763z" fill="#3F7490" p-id="4160"></path><path d="M511.504496 204.601537c169.491913 0 306.902305 137.410392 306.902305 306.902304 0 169.491913-137.410392 306.902305-306.902305 306.902305s-306.902305-137.410392-306.902305-306.902305c0-169.502143 137.400162-306.902305 306.902305-306.902304z" fill="#EDEDED" p-id="4161"></path><path d="M768.381725 588.986443a355.321258 355.321258 0 0 1-48.480334 2.117626 366.441352 366.441352 0 0 1-48.00975-5.012738l-11.570217-2.373377-5.749303-1.21738-5.616313-1.462901c-3.723748-1.002548-7.488416-1.882334-11.130323-2.936032l-10.762041-3.375925-5.29918-1.718653-5.135498-1.902794-10.117546-3.754438c-6.465409-2.772351-12.879667-5.37079-18.874492-8.235212l-8.746716-4.296632c-2.874652-1.421981-5.708383-2.772351-8.317052-4.317093-5.27872-3.017873-10.496059-5.698153-15.130284-8.634185l-13.074038-8.214751-10.782501-7.570257-4.654685-3.273625-3.94881-3.058793-6.230116-4.900207-3.866969-3.038332 5.043427 1.145768 7.815779 1.749343 4.982048 1.104849 5.687922 0.982087 13.401401 2.271077 15.96915 1.882334c5.749303 0.675185 11.856659 0.879787 18.373218 1.381061 3.263395 0.255752 6.60863 0.296672 10.025475 0.337592l10.567669 0.163681c7.212204 0 14.721081-0.439893 22.59824-0.716105l11.92827-1.043468 6.158506-0.562654 6.189196-0.797946 12.715986-1.780033c4.296632-0.695645 8.583034-1.595892 12.992198-2.404069l6.629089-1.278759 6.63932-1.554972 13.513932-3.304315a438.767995 438.767995 0 0 0 55.119654-19.304155 449.611876 449.611876 0 0 0 54.546769-28.633985l0.439894-0.296672a304.95859 304.95859 0 0 0-41.922855-111.395306 345.285553 345.285553 0 0 1-23.88723 35.436986 360.160085 360.160085 0 0 1-32.787396 35.784808 366.707334 366.707334 0 0 1-37.493231 30.393559l-9.872025 6.506329-4.920667 3.191784-5.002507 2.936032c-3.324775 1.933485-6.60863 3.96927-9.943635 5.790223l-10.005015 5.217339-4.941127 2.537059-4.971817 2.291537-9.810644 4.501234c-6.547249 2.588209-12.920587 5.29918-19.160934 7.508877l-9.237759 3.150863c-3.028103 1.043468-5.994825 2.066476-8.930857 2.823502-5.861834 1.606122-11.457686 3.406616-16.797787 4.613764l-15.058673 3.427076-12.981967 2.281307-5.606082 0.971857-4.961587 0.624035-7.87716 0.951397-5.718613 0.685415-0.317132-0.255752 5.043428-3.181553 6.772311-4.286403 4.296632-2.75189 4.716065-3.324775 11.079174-7.866929 12.613684-9.953865c4.542154-3.580527 9.012698-7.754398 13.964055-12.02034 2.496139-2.117626 4.889977-4.450083 7.345195-6.843922l7.570257-7.365655c5.104808-5.104808 10.107316-10.71089 15.478107-16.490884l7.693017-9.166149 3.96927-4.736525 3.805589-4.951358 7.744168-10.250537c2.547289-3.519146 4.941127-7.191744 7.478186-10.874571l3.785128-5.595852 3.600987-5.790224 7.222435-11.897579a442.941866 442.941866 0 0 0 25.32967-52.623515 450.430283 450.430283 0 0 0 18.322068-58.822942l0.09207-0.450123a305.490554 305.490554 0 0 0-108.397894-49.16575c3.467996 13.503701 6.311957 27.498447 8.163601 41.922855 1.800494 15.92823 2.506369 32.214512 2.127856 48.480334a366.472042 366.472042 0 0 1-5.022967 47.999521l-2.373378 11.570217-1.227609 5.749303-1.462901 5.616312c-0.992317 3.723748-1.872104 7.478186-2.936032 11.130324l-3.375926 10.75181-1.708423 5.29918-1.902794 5.135499-3.744208 10.117546c-2.803041 6.455178-5.39125 12.879667-8.245442 18.864261l-4.306862 8.756946c-1.411751 2.874652-2.772351 5.698153-4.317093 8.317053-3.017873 5.27872-5.698153 10.496059-8.623954 15.130283l-8.224982 13.074038-7.560027 10.782501-3.273625 4.654685-3.069023 3.93858-4.900206 6.240347-3.723748 4.726295-0.225062-0.184141 1.30945-5.790224 1.759573-7.805548 1.104848-4.982048 0.982088-5.687922 2.271077-13.401401 1.892564-15.96915c0.685415-5.739073 0.879787-11.856659 1.37083-18.373218 0.276212-3.263395 0.306902-6.60863 0.347823-10.025475l0.153451-10.56767c0.01023-7.222434-0.429663-14.721081-0.716105-22.598239l-1.043468-11.9385-0.552424-6.148276-0.808176-6.199427-1.780034-12.726215c-0.685415-4.286402-1.585662-8.583034-2.393838-12.981968l-1.278759-6.629089-1.554972-6.63932-3.304315-13.524162a439.913764 439.913764 0 0 0-19.304155-55.119654 451.136158 451.136158 0 0 0-28.633985-54.546769l-0.276212-0.398973a304.856289 304.856289 0 0 0-111.374846 41.912624 346.932595 346.932595 0 0 1 35.406296 23.86677c12.531844 9.994785 24.552184 21.012578 35.784808 32.777166a367.934943 367.934943 0 0 1 30.393559 37.503461l6.506328 9.861794 3.191784 4.920667 2.936032 5.002508c1.933485 3.335005 3.96927 6.61886 5.790224 9.943635l5.217339 9.994785 2.537059 4.951357 2.291537 4.971817 4.501234 9.800414c2.588209 6.557479 5.29918 12.920587 7.508877 19.171164l3.150863 9.237759c1.043468 3.017873 2.066476 5.994825 2.833731 8.930857 1.595892 5.861834 3.396386 11.457686 4.603535 16.797786l3.427076 15.058673 2.281307 12.971738 0.971857 5.606082 0.624035 4.961587 0.951397 7.877159 0.664955 5.575392-3.355465-5.32987-4.286402-6.772311-2.751891-4.306862-3.324775-4.705835-7.866929-11.079174-9.964095-12.623914c-3.570297-4.542154-7.754398-9.002468-12.02034-13.964055-2.117626-2.506369-4.450083-4.889977-6.843922-7.345195l-7.375885-7.570257c-5.094578-5.104808-10.71089-10.107316-16.480654-15.467876l-9.166149-7.703248-4.736525-3.95904-4.951357-3.805589-10.250537-7.733938c-3.519146-2.557519-7.191744-4.951357-10.874572-7.488416l-5.595852-3.785128-5.790223-3.590757-11.89758-7.232665a440.73217 440.73217 0 0 0-52.633745-25.31944 450.164301 450.164301 0 0 0-58.802482-18.332297 305.367793 305.367793 0 0 0-49.462421 108.264903 347.086047 347.086047 0 0 1 41.769404-8.112451 358.625573 358.625573 0 0 1 48.480334-2.127856 367.873563 367.873563 0 0 1 47.99952 5.022967l11.580447 2.373378 5.749303 1.22761 5.616312 1.45267c3.723748 0.992317 7.478186 1.882334 11.130324 2.946263l10.762041 3.375925 5.29918 1.708423 5.135498 1.913024 10.107316 3.744208c6.465409 2.803041 12.889897 5.38102 18.874492 8.245442l8.756946 4.306862c2.874652 1.401521 5.698153 2.772351 8.317052 4.306863 5.27872 3.017873 10.496059 5.698153 15.130284 8.623955l13.074038 8.224981 10.782501 7.560027 4.654685 3.283855 3.938579 3.069023 6.240347 4.900207 5.063888 3.9795 0.01023 0.09207-6.311957-1.432211-7.815779-1.749343-4.982047-1.104848-5.687923-0.982087-13.401401-2.271077-15.969149-1.902795c-5.749303-0.675185-11.856659-0.879787-18.373218-1.3606-3.273625-0.276212-6.60863-0.317132-10.025476-0.358053l-10.567669-0.143221c-7.212204-0.01023-14.721081 0.419433-22.59824 0.716106l-11.928269 1.043468-6.158507 0.542194-6.189196 0.818406-12.726216 1.780033c-4.286402 0.675185-8.583034 1.575432-12.981967 2.393838l-6.62909 1.27876-6.63932 1.554971-13.513931 3.304315a437.744987 437.744987 0 0 0-55.129884 19.293925 449.683487 449.683487 0 0 0-54.54677 28.633985l-0.552424 0.368283a305.019971 305.019971 0 0 0 41.800094 111.702209c7.161054-12.153331 15.140514-24.194132 24.122521-35.825729a361.295623 361.295623 0 0 1 32.777166-35.784809 366.564113 366.564113 0 0 1 37.503462-30.393558l9.872024-6.496099 4.920667-3.191784 4.992277-2.956492c3.335005-1.923254 6.61886-3.95904 9.953865-5.769764l10.005015-5.237799 4.941127-2.537059 4.971818-2.281307 9.800413-4.491004c6.557479-2.59844 12.930817-5.31964 19.171164-7.529336l9.23776-3.140634c3.028103-1.043468 5.994825-2.076706 8.930857-2.833731 5.861834-1.595892 11.457686-3.396386 16.797786-4.593305l15.058673-3.427075 12.981967-2.281308 5.606083-0.971857 4.961587-0.624035 7.866929-0.961627 6.455178-0.757025 0.01023 0.06138-5.462861 3.447536-6.77231 4.286402-4.296633 2.741661-4.716065 3.335005-11.079173 7.877159-12.613685 9.953865c-4.542154 3.580527-9.012698 7.754398-13.964055 12.01011-2.506369 2.117626-4.889977 4.460313-7.345195 6.854151l-7.570257 7.375886c-5.104808 5.094578-10.107316 10.71089-15.467876 16.480653l-7.713478 9.166149-3.95904 4.736526-3.805588 4.951357-7.744168 10.250537c-2.547289 3.519146-4.941127 7.191744-7.478187 10.864342l-3.785128 5.595852-3.600987 5.790223-7.222434 11.90781a440.76286 440.76286 0 0 0-25.329671 52.633745A449.652797 449.652797 0 0 0 333.153337 759.859416l-0.214832 1.125309a305.603085 305.603085 0 0 0 108.704797 49.28851 348.057904 348.057904 0 0 1-8.347743-42.731031 358.400512 358.400512 0 0 1-2.127856-48.470104 366.441352 366.441352 0 0 1 5.022968-48.00975l2.373377-11.570217 1.22761-5.749304 1.452671-5.616312c1.002548-3.713518 1.882334-7.467956 2.946262-11.130323l3.375925-10.751811 1.698193-5.29918 1.913024-5.135498 3.744208-10.107316c2.803041-6.475639 5.39125-12.889897 8.245442-18.884722l4.306863-8.746716c1.411751-2.874652 2.772351-5.698153 4.317092-8.327282 3.017873-5.27872 5.698153-10.485829 8.623955-15.130284l8.214751-13.063808 7.570257-10.792731 3.273625-4.634225 3.069023-3.95904 4.900207-6.230116 3.9795-5.063888 0.03069 0.245521-1.37083 6.045976-1.759574 7.815778-1.094618 4.971818-0.982087 5.698153-2.271077 13.39117-1.892565 15.96915c-0.685415 5.749303-0.890017 11.866889-1.37083 18.383448-0.276212 3.253164-0.306902 6.5984-0.347822 10.025475l-0.153452 10.56767c-0.01023 7.212204 0.429663 14.71085 0.716106 22.577779l1.043468 11.94873 0.552424 6.158506 0.808176 6.189197 1.780033 12.705755c0.675185 4.296632 1.585662 8.593265 2.393838 12.992198l1.27876 6.62909 1.554971 6.629089 3.304315 13.524162a439.47387 439.47387 0 0 0 19.304155 55.129884 454.0415 454.0415 0 0 0 28.623755 54.54677l0.726336 1.074158a304.743759 304.743759 0 0 0 111.528297-42.219527 348.303426 348.303426 0 0 1-36.00987-24.235052 360.160085 360.160085 0 0 1-35.784809-32.787397 367.709881 367.709881 0 0 1-30.393558-37.483001l-6.506329-9.872024-3.191784-4.930897-2.946262-4.992278c-1.923254-3.335005-3.95904-6.60863-5.779994-9.953865l-5.217339-9.994785-2.547289-4.951357-2.281307-4.971817-4.501234-9.810644c-2.588209-6.557479-5.30941-12.910357-7.508876-19.160934l-3.150864-9.227529c-1.043468-3.038333-2.066476-6.015285-2.833731-8.930857-1.595892-5.872064-3.396386-11.467916-4.603535-16.808016l-3.427075-15.048443-2.281308-12.992198-0.971857-5.595852-0.624035-4.971817-0.951397-7.866929-0.695645-5.800454 0.470584 0.102301 2.976952 4.716065 4.286402 6.782541 2.751891 4.296633 3.324775 4.716065 7.866929 11.068943 9.953865 12.623915c3.580527 4.531924 7.764628 9.012698 12.03057 13.964055 2.117626 2.496139 4.450083 4.879747 6.843921 7.334965l7.375886 7.570257c5.094578 5.115038 10.71089 10.107316 16.480653 15.467876l9.166149 7.713478 4.736526 3.959039 4.951357 3.815819 10.250537 7.733938c3.519146 2.537059 7.191744 4.951357 10.874572 7.467956l5.595852 3.795359 5.790223 3.600987 11.89758 7.232664a445.499386 445.499386 0 0 0 52.633745 25.31944 451.862493 451.862493 0 0 0 58.812712 18.322068l0.890016 0.173911a305.265492 305.265492 0 0 0 48.869077-108.510425 341.459504 341.459504 0 0 1-42.066076 8.235212zM511.565877 511.074178l0.04092-0.204601 0.153451 0.235291-0.163681 0.214832-0.03069-0.245522z m0.04092 0.398973v-0.06138l0.235292-0.163682 0.112531 0.184142-0.347823 0.04092z" fill="#C45B4B" p-id="4162"></path><path d="M511.504496 337.592535c107.81478 0 195.946892 83.446737 203.824051 189.256422 0.378513-5.084348 0.777486-10.168696 0.777486-15.345116 0-112.991199-91.600108-204.601537-204.601537-204.601536s-204.601537 91.600108-204.601536 204.601536c0 5.176419 0.398973 10.260767 0.777486 15.345116 7.866929-105.809685 95.999041-189.256421 203.82405-189.256422z" fill="#DADADA" p-id="4163"></path><path d="M689.804505 442.542893a203.251166 203.251166 0 0 1 23.007443 64.265343l3.007643-0.879787a203.619449 203.619449 0 0 0-15.068904-72.050431c-3.590757 2.976952-7.242894 5.831144-10.946182 8.664875z m-238.44263-97.707463l0.992317 1.493591a204.233254 204.233254 0 0 1 59.150304-8.736486l2.424528 0.112531-1.258299-5.3401-3.304315-13.524162c-1.074158-3.856739-2.250617-7.754398-3.447536-11.652057a203.558069 203.558069 0 0 0-72.040201 15.058673 383.147067 383.147067 0 0 1 17.483202 22.58801z m-113.011659 88.797066a205.266492 205.266492 0 0 1 45.789824-51.344755l-10.322148-6.271037c-3.335005-1.882334-6.956452-3.611217-10.393758-5.442401a204.754988 204.754988 0 0 0-40.419033 61.22701c5.155959 0.491044 10.250537 1.135539 15.345115 1.831183z m-29.3194 82.127057l-1.974405 0.583115c0.143221 3.508916 0.358053 7.007603 0.624035 10.496058 0.276212-3.744208 0.879787-7.386115 1.35037-11.079173zM586.654641 351.914643a203.885431 203.885431 0 0 1 53.636292 31.600707l5.912985-9.739033c1.953945-3.478226 3.774898-7.242894 5.677692-10.854112a204.478776 204.478776 0 0 0-61.441841-40.204201c-0.900247 9.575352-2.046015 19.079093-3.621447 28.419153l-0.163681 0.777486z" fill="#B55445" p-id="4164"></path><path d="M542.194727 816.881865a310.27823 310.27823 0 0 1-61.380461 0v205.12327c10.158466 0.603575 20.378313 1.002548 30.69023 1.002548s20.531764-0.398973 30.690231-1.002548V816.881865z" fill="#ECC55D" p-id="4165"></path><path d="M542.194727 869.270088v-52.388223a310.27823 310.27823 0 0 1-61.380461 0v52.388223h61.380461z" fill="#D4B154" p-id="4166"></path></svg>