<?xml version="1.0" standalone="no"?><!DOCTYPE svg PUBLIC "-//W3C//DTD SVG 1.1//EN" "http://www.w3.org/Graphics/SVG/1.1/DTD/svg11.dtd"><svg t="1676021905283" class="icon" viewBox="0 0 1024 1024" version="1.1" xmlns="http://www.w3.org/2000/svg" p-id="1830" xmlns:xlink="http://www.w3.org/1999/xlink" width="200" height="200"><path d="M434.4 358.4m-24.4 0a24.4 24.4 0 1 0 48.8 0 24.4 24.4 0 1 0-48.8 0Z" fill="#3F51B5" p-id="1831"></path><path d="M434.4 486.4m-24.4 0a24.4 24.4 0 1 0 48.8 0 24.4 24.4 0 1 0-48.8 0Z" fill="#3F51B5" p-id="1832"></path><path d="M288 486.4m-24.4 0a24.4 24.4 0 1 0 48.8 0 24.4 24.4 0 1 0-48.8 0Z" fill="#3F51B5" p-id="1833"></path><path d="M288 407.2m-24.4 0a24.4 24.4 0 1 0 48.8 0 24.4 24.4 0 1 0-48.8 0Z" fill="#3F51B5" p-id="1834"></path><path d="M866 732.4H152.4c-14.8 0-26.8-12-26.8-26.8V198.8c0-14.8 12-26.8 26.8-26.8h713.6c14.8 0 26.8 12 26.8 26.8v116.4a26.8 26.8 0 0 1-53.6 0V226h-660v452.4h659.6v-224.4a26.8 26.8 0 0 1 53.6 0v251.2c0.4 14.8-11.6 27.2-26.4 27.2zM661.2 864H356.8a26.8 26.8 0 0 1 0-53.6h304.4c14.8 0 26.8 12 26.8 26.8 0.4 14.8-11.6 26.8-26.8 26.8z m0 0" fill="#3F51B5" p-id="1835"></path><path d="M566.8 855.2h-111.6c-7.6 0-14.4-3.2-19.2-8.8-4.8-5.6-6.8-13.2-5.6-20.4l20.8-123.6c2-12 12.8-21.2 24.8-21.2h69.6c12.4 0 22.8 8.8 24.8 21.2l20.8 123.6c1.2 7.2-0.8 14.8-5.6 20.4-4 5.6-11.2 8.8-18.8 8.8z m-84.8-46.8h54.4l-13.2-76.8h-28l-13.2 76.8z m380-209.2H156.4c-14.8 0-26.4-12-26.4-26.4 0-14.8 12-26.4 26.4-26.4h705.6c14.8 0 26.4 12 26.4 26.4 0 14.8-12 26.4-26.4 26.4z m-344 65.6h-17.6c-14.8 0-26.4-12-26.4-26.4 0-14.8 12-26.4 26.4-26.4h17.6c14.8 0 26.4 12 26.4 26.4 0 14.4-11.6 26.4-26.4 26.4z m0 0M410 358.4h48.8v128h-48.8z" fill="#3F51B5" p-id="1836"></path><path d="M592.8 279.2m-24.4 0a24.4 24.4 0 1 0 48.8 0 24.4 24.4 0 1 0-48.8 0Z" fill="#3F51B5" p-id="1837"></path><path d="M592.8 486.4m-24.4 0a24.4 24.4 0 1 0 48.8 0 24.4 24.4 0 1 0-48.8 0Z" fill="#3F51B5" p-id="1838"></path><path d="M720.8 358.4m-24.4 0a24.4 24.4 0 1 0 48.8 0 24.4 24.4 0 1 0-48.8 0Z" fill="#3F51B5" p-id="1839"></path><path d="M720.8 486.4m-24.4 0a24.4 24.4 0 1 0 48.8 0 24.4 24.4 0 1 0-48.8 0Z" fill="#3F51B5" p-id="1840"></path><path d="M696.4 358.4h48.8v128h-48.8zM263.6 407.2h48.8v79.2H263.6zM568.4 279.2h48.8v207.2h-48.8z" fill="#3F51B5" p-id="1841"></path></svg>