<?xml version="1.0" standalone="no"?><!DOCTYPE svg PUBLIC "-//W3C//DTD SVG 1.1//EN" "http://www.w3.org/Graphics/SVG/1.1/DTD/svg11.dtd"><svg t="1697009569869" class="icon" viewBox="0 0 1024 1024" version="1.1" xmlns="http://www.w3.org/2000/svg" p-id="3091" xmlns:xlink="http://www.w3.org/1999/xlink" width="200" height="200"><path d="M522.3 507.7m-422 0a422 422 0 1 0 844 0 422 422 0 1 0-844 0Z" fill="#4F67B0" p-id="3092"></path><path d="M630.6 426.4h108.3v162.5H630.6V426.4z m-325 108.4h108.3v162.5H305.6V534.8z m0-216.7h108.3v162.5H305.6V318.1z m108.3 270.8h108.3v54.2H413.9v-54.2z m54.2-108.3h162.5v54.2H468.1v-54.2z m-54.2-108.3h108.3v54.2H413.9v-54.2z m0 0" fill="#FFFFFF" p-id="3093"></path><path d="M468.1 372.3h54.2v270.8h-54.2z" fill="#FFFFFF" p-id="3094"></path></svg>