<?xml version="1.0" standalone="no"?><!DOCTYPE svg PUBLIC "-//W3C//DTD SVG 1.1//EN" "http://www.w3.org/Graphics/SVG/1.1/DTD/svg11.dtd"><svg t="1687917347587" class="icon" viewBox="0 0 1024 1024" version="1.1" xmlns="http://www.w3.org/2000/svg" p-id="3795" xmlns:xlink="http://www.w3.org/1999/xlink" width="200" height="200"><path d="M959.7 408.3c-2.4-7.2-8.6-12.5-16.2-13.6l-285.9-40.9L529.2 95.1c-3.4-6.8-10.3-11.1-17.9-11.1-7.6 0-14.6 4.4-17.9 11.2L366.1 354.4 80.4 396.6c-7.5 1.1-13.8 6.4-16.1 13.6-2.3 7.2-0.4 15.2 5.1 20.5l207.3 201.1-48.2 284.8c-1.3 7.5 1.8 15.1 8 19.5 3.5 2.5 7.6 3.8 11.7 3.8 3.2 0 6.4-0.8 9.3-2.3l255.4-135 256 133.8c6.7 3.5 14.9 2.9 21.1-1.6 6.1-4.5 9.2-12.1 7.9-19.6l-49.5-284.6 206.4-202.1c5.4-5.1 7.3-13 4.9-20.2zM712.8 609.6c-4.7 4.6-6.8 11.2-5.7 17.7l44.3 255-229.3-119.9c-5.8-3-12.8-3-18.6 0l-228.8 121 43.2-255.2c1.1-6.5-1.1-13.1-5.8-17.7L126.3 430.3l256.1-37.8c6.5-1 12.1-5.1 15-11l114-232.4L626.5 381c2.9 5.9 8.6 10 15.1 10.9l256.2 36.6-185 181.1z" p-id="3796"></path></svg>