<?xml version="1.0" standalone="no"?><!DOCTYPE svg PUBLIC "-//W3C//DTD SVG 1.1//EN" "http://www.w3.org/Graphics/SVG/1.1/DTD/svg11.dtd"><svg t="1687918008976" class="icon" viewBox="0 0 1024 1024" version="1.1" xmlns="http://www.w3.org/2000/svg" p-id="4913" xmlns:xlink="http://www.w3.org/1999/xlink" width="200" height="200"><path d="M425.9 939.6c-22.5 0-43.5-6.6-60.7-19.1-18.9-13.7-32.2-33.8-38.6-58.2-4.4-12.1-42.4-117.9-56.9-159.2l-99-1.3c-26-0.3-48.4-17.4-55.8-42.3L66.5 494.6c-7.6-25.9 3.3-53.6 26.6-67.4l436.1-257.4c9.1-5.4 19.4-8.2 29.9-8.2 26.8 0 50.3 18.1 57.1 44l112.2 428.9c4.7 17.8 0.9 36.4-10.4 50.9-11.2 14.6-28.2 22.9-46.6 22.9h-0.8L500 706.2c-4.5 0-7 2.7-8.1 4.3-1.1 1.6-2.7 4.9-1 9 37.1 94.7 37.3 95.6 37.9 98.6 6.2 31.1-0.6 60.7-19.1 83.4-19.6 23.8-51 38.1-83.8 38.1z m133.2-728c-1.6 0-3.1 0.4-4.5 1.3L118.5 470.3c-3.5 2.1-5.2 6.3-4 10.2l48.4 164.9c1.1 3.8 4.5 6.4 8.5 6.4l103.7 1.4c18.1 0.2 34.3 11.9 40.3 29 13.6 39.2 58.2 163.1 58.7 164.4l0.4 1.2 0.3 1.2c9.2 36.7 38.8 40.7 51.1 40.7 17.8 0 35.1-7.6 45.1-19.9 8.8-10.8 11.9-24.3 9.1-40.3-1.7-4.6-8.7-22.7-35.7-91.7-7.2-18.4-4.9-39.1 6.3-55.5 11.3-16.6 30.1-26.3 50.2-26.1l170.5 2.2c3.8 0 6.1-2.2 7.1-3.5 1-1.3 2.5-4 1.6-7.7L567.8 218.3c-1.2-4.6-5.4-6.7-8.7-6.7zM740.6 297.5c-4.2 0-8.5-1.1-12.4-3.3-12-6.8-16.2-22.1-9.3-34.1l76.2-133.4c6.8-12 22.1-16.2 34.1-9.3 12 6.8 16.2 22.1 9.3 34.1l-76.2 133.4c-4.6 8.1-13 12.6-21.7 12.6zM765.9 416.1c-11.1 0-21.2-7.5-24.2-18.7-3.5-13.4 4.5-27 17.9-30.5l167-43.6c13.4-3.5 27 4.5 30.5 17.9 3.5 13.4-4.5 27-17.9 30.5l-167 43.6c-2.1 0.6-4.2 0.8-6.3 0.8zM932.9 606.3c-4.2 0-8.5-1.1-12.4-3.3l-130.3-74.4c-12-6.8-16.2-22.1-9.3-34.1s22.1-16.2 34.1-9.3l130.3 74.4c12 6.8 16.2 22.1 9.3 34.1-4.6 8.1-13 12.6-21.7 12.6z" fill="#ea9518" p-id="4914"></path></svg>