<?xml version="1.0" standalone="no"?><!DOCTYPE svg PUBLIC "-//W3C//DTD SVG 1.1//EN" "http://www.w3.org/Graphics/SVG/1.1/DTD/svg11.dtd"><svg t="1699928616297" class="icon" viewBox="0 0 1024 1024" version="1.1" xmlns="http://www.w3.org/2000/svg" p-id="1904" xmlns:xlink="http://www.w3.org/1999/xlink" width="200" height="200"><path d="M512 750.312727c-87.505455 0-158.254545-70.749091-158.254545-158.254545s70.749091-158.254545 158.254545-158.254546 158.254545 70.749091 158.254545 158.254546-70.749091 158.254545-158.254545 158.254545zM666.530909 260.654545c6.516364-24.203636 14.894545-49.338182 24.203636-59.578181 14.894545-16.756364 46.545455-24.203636 66.094546-34.443637 53.992727-29.789091 33.512727-92.16-13.963636-80.058182-38.167273 9.309091-70.749091 60.509091-83.781819 107.054546-5.585455 17.687273-10.24 37.236364-13.963636 54.923636-13.963636-7.447273-27.927273-14.894545-41.890909-21.410909-40.96-19.549091-83.781818-54.923636-83.781818-54.923636-8.378182-7.447273-21.410909-7.447273-28.858182 0.930909 0 0-45.614545 40.96-81.92 58.647273-15.825455 7.447273-30.72 15.825455-44.683636 24.203636-6.516364-30.72-13.032727-68.887273-8.378182-83.781818 5.585455-21.410909 31.650909-42.821818 43.752727-60.509091 35.374545-51.2-12.101818-94.952727-51.2-62.370909-29.789091 26.065455-36.305455 85.643636-26.996364 131.258182 5.585455 28.858182 13.963636 63.301818 19.549091 87.505454C195.490909 352.814545 111.709091 461.730909 115.432727 626.501818c5.585455 215.04 180.596364 360.261818 393.774546 361.192727 219.694545 1.861818 399.36-149.876364 399.36-371.432727 0-164.770909-102.4-274.618182-242.036364-355.607273z" fill="#070102" p-id="1905"></path></svg>