<?xml version="1.0" standalone="no"?><!DOCTYPE svg PUBLIC "-//W3C//DTD SVG 1.1//EN" "http://www.w3.org/Graphics/SVG/1.1/DTD/svg11.dtd"><svg t="1687918355354" class="icon" viewBox="0 0 1025 1024" version="1.1" xmlns="http://www.w3.org/2000/svg" p-id="2230" xmlns:xlink="http://www.w3.org/1999/xlink" width="200.1953125" height="200"><path d="M1021.99856 563.69c-33.323-199.266-176.179-199.467-276.077-194.182-9.016-26.4-42.34-231.226-288.559-199.713C255.57556 189.259 249.09756 345.89 249.09756 425.596c-59.241 0-233.26 0-248.069 177.948-13.884 185.363 115.702 240.971 232.332 253.948l533.165 0C814.65656 852.857 1047.91656 820.419 1021.99856 563.69L1021.99856 563.69 1021.99856 563.69 1021.99856 563.69zM650.80756 454.019c24.969 0 45.211 18.88 45.211 42.181 0 23.294-20.256 42.181-45.211 42.181L339.66056 538.381c-24.969 0-45.211-18.88-45.211-42.181 0.003-23.296 20.261-42.181 45.211-42.181C339.66056 454.019 650.80756 454.019 650.80756 454.019zM343.36856 768.232c-24.969 0-45.214-18.878-45.214-42.181 0-23.294 20.259-42.182 45.214-42.182l311.141 0c24.97 0 45.214 18.881 45.214 42.182 0 23.297-20.259 42.181-45.214 42.181L343.36856 768.232 343.36856 768.232zM654.50956 651.298 343.36756 651.298c-24.969 0-45.214-18.88-45.214-42.181 0-23.294 20.259-42.181 45.214-42.181l311.142 0c24.97 0 45.214 18.88 45.214 42.181C699.72256 632.411 679.46356 651.298 654.50956 651.298L654.50956 651.298C654.50956 651.298 654.50956 651.298 654.50956 651.298zM618.30656 632.045c12.198 0 22.086-9.892 22.086-22.096 0-12.203-9.888-22.096-22.086-22.096-12.198 0-22.086 9.892-22.086 22.096C596.22056 622.152 606.10756 632.045 618.30656 632.045L618.30656 632.045 618.30656 632.045zM618.30656 748.911c12.198 0 22.086-9.892 22.086-22.096 0-12.203-9.888-22.096-22.086-22.096-12.198 0-22.086 9.892-22.086 22.096S606.10756 748.911 618.30656 748.911L618.30656 748.911 618.30656 748.911zM618.61756 519.198c12.198 0 22.086-9.892 22.086-22.095s-9.888-22.096-22.086-22.096c-12.198 0-22.086 9.892-22.086 22.096C596.53156 509.306 606.41956 519.198 618.61756 519.198L618.61756 519.198 618.61756 519.198z" fill="#1196db" p-id="2231"></path></svg>