<?xml version="1.0" standalone="no"?><!DOCTYPE svg PUBLIC "-//W3C//DTD SVG 1.1//EN" "http://www.w3.org/Graphics/SVG/1.1/DTD/svg11.dtd"><svg t="1668493706775" class="icon" viewBox="0 0 1024 1024" version="1.1" xmlns="http://www.w3.org/2000/svg" p-id="7555" xmlns:xlink="http://www.w3.org/1999/xlink" width="200" height="200"><path d="M793.6 372.736c0-4.096 0.512-7.68 0.512-11.776 0-111.616-90.624-202.24-202.24-202.24-61.44 0-116.224 27.136-153.088 70.656-14.336-4.608-29.184-7.168-45.056-7.168-78.336 0-141.312 63.488-141.312 141.312 0 2.048 0 4.096 0.512 6.144C183.296 373.76 128 431.104 128 501.76s55.296 128 124.416 132.096l510.976 0.512c73.216 0 132.608-59.392 132.608-132.608 0-62.464-43.52-115.2-102.4-129.024" fill="#80AAFF" p-id="7556"></path><path d="M570.88 331.264c71.168 71.68 171.008 79.36 222.72 41.472 0-4.096 0.512-7.68 0.512-11.776 0-111.616-90.624-202.24-202.24-202.24-57.344 0-109.056 24.064-145.92 62.464l-7.168 7.68c0 0.512 47.616 17.408 132.096 102.4z" fill="#B3CFFF" p-id="7557"></path><path d="M490.496 476.16C318.976 353.28 252.928 369.664 252.928 369.664 183.296 373.76 128 431.104 128 501.76s55.296 128 124.416 132.096l510.976 0.512c73.216 0 132.608-59.392 132.608-132.608 0-29.696-9.728-57.344-26.624-79.36 23.04 92.16-212.992 172.544-378.88 53.76z" fill="#5886FC" p-id="7558"></path><path d="M530.432 712.192c-3.072-0.512-43.008 50.688-46.592 68.608-3.584 17.92 8.192 35.328 26.112 38.4 17.92 3.584 35.328-8.192 38.4-26.112 3.584-17.92-14.848-80.384-17.92-80.896zM324.096 670.208c-3.072-0.512-43.008 50.688-46.592 68.608-3.584 17.92 8.192 35.328 26.112 38.4 17.92 3.584 35.328-8.192 38.4-26.112 3.584-17.92-14.848-80.384-17.92-80.896zM368.128 837.12c-2.56 12.8 5.632 25.088 18.432 27.136 12.8 2.56 25.088-5.632 27.136-18.432s-10.24-56.832-12.8-57.344c-2.048 0-30.208 35.84-32.768 48.64zM728.576 670.208c-3.072-0.512-43.008 50.688-46.592 68.608-3.584 17.92 8.192 35.328 26.112 38.4 17.92 3.584 35.328-8.192 38.4-26.112s-14.336-80.384-17.92-80.896zM607.744 821.76c-2.56 12.8 5.632 25.088 18.432 27.136 12.8 2.56 25.088-5.632 27.136-18.432 2.56-12.8-10.24-56.832-12.8-57.344-2.048-0.512-30.208 35.84-32.768 48.64z" fill="#52B0FF" p-id="7559"></path></svg>