<?xml version="1.0" standalone="no"?><!DOCTYPE svg PUBLIC "-//W3C//DTD SVG 1.1//EN" "http://www.w3.org/Graphics/SVG/1.1/DTD/svg11.dtd"><svg t="1687919450765" class="icon" viewBox="0 0 2220 1024" version="1.1" xmlns="http://www.w3.org/2000/svg" p-id="3345" xmlns:xlink="http://www.w3.org/1999/xlink" width="433.59375" height="200"><path d="M2052.808163 171.585217h-21.31037c-140.721923 0-317.451023 125.290276-432.820954 257.194116a169.380696 169.380696 0 0 0-121.616075-31.230714A710.958019 710.958019 0 0 0 853.916164 0 674.950843 674.950843 0 0 0 211.298295 477.646215l-14.329386 54.378184h-21.31037a173.054898 173.054898 0 0 0-167.543595 132.271259c-2.571941 9.920344-5.143882 20.575529-7.348403 30.863294a36.742017 36.742017 0 0 0 7.348403 30.495874 36.742017 36.742017 0 0 0 29.393613 13.961966h49.969143v41.151059c31.598134 52.173663 137.415142 84.874058 159.092931 91.120201l-12.859706 146.968066h270.788662v-4.409042A110.22605 110.22605 0 0 0 444.24268 918.550413h-3.674202a52.173663 52.173663 0 0 1 51.438824-41.518479h559.948331a1493.930391 1493.930391 0 0 0 305.693577-36.742017l63.931109 183.710083H1690.16446v-4.409042A110.22605 110.22605 0 0 0 1629.540133 918.550413l-5.143883-2.571942-52.541083-141.089343 36.742016-18.003588a3514.006459 3514.006459 0 0 0 320.022964-186.649444l22.41263-14.696806a1342.185863 1342.185863 0 0 1 170.850377-87.446 155.41873 155.41873 0 0 0 90.38536-156.15357 159.092931 159.092931 0 0 0-159.460351-140.354503z" fill="#A1C11E" p-id="3346"></path></svg>