<?xml version="1.0" standalone="no"?><!DOCTYPE svg PUBLIC "-//W3C//DTD SVG 1.1//EN" "http://www.w3.org/Graphics/SVG/1.1/DTD/svg11.dtd"><svg t="1738999807131" class="icon" viewBox="0 0 1024 1024" version="1.1" xmlns="http://www.w3.org/2000/svg" p-id="6010" xmlns:xlink="http://www.w3.org/1999/xlink" width="200" height="200"><path d="M615.7312 53.16608c0.57344-17.36704-2.70336-34.77504-4.87424-52.14208 27.72992 33.66912 33.1776 80.93696 18.47296 121.11872-19.53792 55.95136-62.99648 98.304-106.98752 135.7824C485.888 286.72 447.91808 319.2832 434.36032 365.48608c-9.25696 33.09568 3.76832 67.33824 21.17632 95.55968 18.432 30.43328 42.35264 57.58976 57.01632 90.19392-35.84-31.5392-70.61504-64.1024-99.9424-102.68672-17.89952-24.9856-35.30752-53.73952-33.66912-85.8112 0.53248-28.2624 19.00544-51.6096 37.4784-71.68 49.9712-52.14208 115.67104-87.4496 161.87392-143.93344 21.7088-26.624 36.90496-59.1872 37.4784-93.96224z" fill="#D32024" p-id="6011"></path><path d="M584.8064 272.5888c45.056-29.9008 95.60064-52.14208 148.2752-65.16736-47.80032 30.96576-98.87744 58.65472-138.52672 100.47488-16.26112 17.94048-29.85984 42.35264-23.3472 67.33824 8.68352 30.43328 32.07168 52.71552 46.6944 79.872a67.42016 67.42016 0 0 1-2.70336 65.69984c-16.7936 28.2624-43.99104 49.43872-72.78592 65.16736 17.408-16.7936 33.71008-38.01088 32.60416-63.52896 0.53248-20.64384-14.1312-36.94592-26.05056-52.14208-24.45312-29.9008-42.3936-68.97664-34.24256-108.09344 8.15104-38.54336 38.58432-67.91168 70.0416-89.62048z" fill="#D32024" p-id="6012"></path><path d="M739.59424 561.5616c14.1312-16.30208 37.4784-19.00544 58.12224-19.57888 30.39232 0 61.93152 15.7696 74.38336 44.56448 11.96032 25.51808 3.80928 55.9104-13.55776 76.5952-34.77504 42.35264-89.088 60.25216-139.0592 76.5952a23.10144 23.10144 0 0 0 1.10592-6.02112c33.66912-16.30208 66.27328-37.4784 91.25888-65.69984 15.1552-17.94048 27.68896-41.28768 23.3472-65.20832-5.44768-29.85984-36.94592-51.03616-66.80576-47.75936-9.78944 1.6384-19.00544 4.34176-28.79488 6.51264z m-480.70656 18.432c44.032-17.89952 91.79136-29.85984 139.59168-28.75392-30.9248 10.32192-63.52896 15.72864-91.7504 32.03072-5.44768 3.2768-9.8304 8.15104-14.1312 12.4928 11.38688 10.32192 27.15648 13.02528 41.7792 14.66368 68.44416 7.04512 137.99424 3.80928 206.4384 0a1633.8944 1633.8944 0 0 0 162.36544-19.00544c7.08608-1.10592 14.1312-1.10592 21.21728-1.10592-19.57888 5.44768-35.88096 19.0464-54.8864 25.55904-89.04704 20.64384-180.8384 24.9856-272.09728 24.41216-46.16192-2.17088-93.3888-2.70336-138.52672-13.55776-14.09024-3.80928-29.85984-7.08608-38.54336-19.53792 8.68352-15.23712 24.45312-20.64384 38.54336-27.19744z m45.09696 114.60608c11.42784-16.26112 32.60416-22.81472 50.50368-29.32736-4.87424 6.5536-9.74848 13.59872-14.09024 21.21728 5.9392 10.28096 17.36704 14.09024 28.2624 15.72864 29.81888 4.9152 60.25216 4.9152 90.68544 7.04512 61.89056 1.10592 123.82208-7.5776 185.18016-17.89952 12.4928 10.32192 26.624 19.00544 41.82016 24.9856-93.3888 26.05056-191.6928 36.94592-288.3584 26.05056-28.83584-3.76832-58.69568-8.15104-84.21376-23.3472-7.08608-5.40672-16.83456-15.19616-9.78944-24.45312z m35.30752 97.23904c11.96032-9.216 26.09152-13.55776 40.18176-18.432-3.80928 3.76832-7.04512 8.11008-10.8544 11.8784 2.17088 10.36288 12.4928 14.17216 21.7088 15.7696 66.27328 10.89536 134.7584 10.89536 200.45824-2.17088 9.74848-1.06496 20.60288-5.40672 29.85984 0 15.72864 8.72448 31.49824 17.408 48.86528 22.81472-60.8256 27.15648-128.2048 37.4784-194.43712 34.77504-34.2016-0.53248-68.97664-5.44768-101.5808-16.83456-15.72864-5.98016-33.09568-13.59872-41.24672-29.32736-2.17088-7.04512 1.6384-14.1312 7.04512-18.432z" fill="#1469AA" p-id="6013"></path><path d="M181.76 870.07232c38.05184-15.7696 80.93696-30.43328 122.22464-19.57888-29.9008 5.44768-61.35808 9.78944-87.4496 26.09152-4.9152 3.2768-11.38688 7.5776-9.78944 14.09024 4.9152 4.9152 11.42784 7.61856 17.408 9.8304 34.73408 12.45184 71.68 16.26112 108.62592 20.0704 97.77152 7.5776 196.07552 6.51264 293.84704-0.53248 53.78048-5.44768 108.09344-9.25696 160.23552-24.45312 14.09024-3.80928 27.68896-11.42784 36.37248-23.3472-2.17088-5.98016-4.34176-11.42784-5.98016-17.408 8.68352 4.9152 16.30208 11.42784 20.0704 20.64384-4.87424 9.25696-11.38688 16.83456-20.60288 21.7088-36.41344 20.64384-77.66016 28.79488-117.88288 36.94592-92.85632 16.30208-187.35104 21.17632-281.31328 18.47296-79.33952-3.2768-158.63808-9.78944-236.29824-24.45312-14.1312-3.76832-34.2016-7.04512-37.4784-23.87968 3.2768-18.432 22.81472-26.09152 38.01088-34.2016z" fill="#1469AA" p-id="6014"></path><path d="M851.49696 926.5152c10.32192-4.87424 17.36704-14.09024 28.2624-18.432-11.4688 35.84-49.47968 51.03616-82.04288 61.35808-70.61504 21.17632-144.46592 26.09152-217.82528 30.43328-63.52896 1.6384-127.09888 1.06496-190.0544-4.34176-39.15776-4.34176-79.33952-8.192-115.712-23.92064 12.4928-0.53248 24.41216 2.17088 36.90496 3.80928 58.69568 7.61856 118.41536 9.25696 177.07008 9.25696 76.5952-0.57344 153.1904-5.98016 228.67968-18.47296 46.16192-9.25696 92.89728-19.00544 134.71744-39.64928z" fill="#1469AA" p-id="6015"></path></svg>