<?xml version="1.0" standalone="no"?><!DOCTYPE svg PUBLIC "-//W3C//DTD SVG 1.1//EN" "http://www.w3.org/Graphics/SVG/1.1/DTD/svg11.dtd"><svg t="1687917982137" class="icon" viewBox="0 0 1024 1024" version="1.1" xmlns="http://www.w3.org/2000/svg" p-id="4354" xmlns:xlink="http://www.w3.org/1999/xlink" width="200" height="200"><path d="M805.31456 734.65856h-6.53312l57.67168-472.94464c6.53312-53.59616-10.24-107.54048-46.03904-147.968a188.817408 188.817408 0 0 0-141.29152-63.61088H220.73344c-65.39264 0-118.59968 53.20704-118.59968 118.59968s53.20704 118.59968 118.59968 118.59968h6.53312L169.59488 760.32a188.8256 188.8256 0 0 0 46.03904 147.94752 188.850176 188.850176 0 0 0 141.29152 63.61088H769.8432v-0.02048h35.45088c65.39264 0 118.59968-53.20704 118.59968-118.59968 0.02048-65.39264-53.18656-118.59968-118.5792-118.59968zM220.73344 205.4144c-20.23424 0-36.67968-16.44544-36.67968-36.67968s16.44544-36.67968 36.67968-36.67968h345.68192c7.45472 18.7392 20.1728 43.86816 41.75872 73.33888H220.73344z m554.3936 46.3872l-77.80352 638.13632-340.3776 0.02048c-30.55616 0-59.6992-13.12768-79.95392-36.00384a106.848256 106.848256 0 0 1-26.05056-83.74272l58.88-482.89792h357.45792c21.62688 0 41.1648-12.82048 49.7664-32.68608 8.6016-19.84512 4.608-42.88512-10.19904-58.6752-23.16288-24.71936-38.72768-46.3872-49.17248-63.91808h11.44832c30.55616 0 59.6992 13.12768 79.95392 36.00384a107.040768 107.040768 0 0 1 26.05056 83.7632z m30.18752 638.13632h-25.47712l8.94976-73.35936h16.52736c20.23424 0 36.67968 16.44544 36.67968 36.67968s-16.46592 36.67968-36.67968 36.67968z" fill="#112079" p-id="4355"></path><path d="M630.4768 501.22752H404.45952c-22.6304 0-40.96-18.3296-40.96-40.96s18.3296-40.96 40.96-40.96h226.01728c22.6304 0 40.96 18.3296 40.96 40.96s-18.35008 40.96-40.96 40.96zM605.9008 694.74304H379.88352c-22.6304 0-40.96-18.3296-40.96-40.96s18.3296-40.96 40.96-40.96h226.01728c22.6304 0 40.96 18.3296 40.96 40.96s-18.35008 40.96-40.96 40.96z" fill="#112079" p-id="4356"></path></svg>