<?xml version="1.0" standalone="no"?><!DOCTYPE svg PUBLIC "-//W3C//DTD SVG 1.1//EN" "http://www.w3.org/Graphics/SVG/1.1/DTD/svg11.dtd"><svg t="1741747260590" class="icon" viewBox="0 0 1024 1024" version="1.1" xmlns="http://www.w3.org/2000/svg" p-id="6036" xmlns:xlink="http://www.w3.org/1999/xlink" width="200" height="200"><path d="M770.4 939.5c-4.8 0-9.5-1.1-13.9-3.4L512 807.5 267.5 936.1c-10.1 5.3-22.3 4.4-31.5-2.3s-13.8-18-11.9-29.2l46.7-272.2L73 439.5c-8.1-7.9-11.1-19.8-7.6-30.6s12.9-18.7 24.1-20.3L363 348.9l122.3-247.7c5-10.2 15.4-16.6 26.8-16.6s21.8 6.5 26.8 16.6L661 348.9l273.4 39.7c11.3 1.6 20.6 9.5 24.1 20.3s0.6 22.7-7.6 30.6L753.2 632.4l46.7 272.2c1.9 11.2-2.7 22.5-11.9 29.2-5.2 3.8-11.4 5.7-17.6 5.7zM512 743.9c4.8 0 9.5 1.1 13.9 3.4L730.8 855l-39.2-228c-1.7-9.7 1.6-19.6 8.6-26.4L866 439l-229-33.3c-9.7-1.4-18.1-7.5-22.5-16.3L512 181.8 409.6 389.4c-4.3 8.8-12.8 14.9-22.5 16.3l-229 33.3 165.7 161.5c7 6.9 10.3 16.7 8.6 26.4L293.2 855l204.9-107.7c4.4-2.2 9.1-3.4 13.9-3.4z" fill="#47444F" p-id="6037"></path></svg>