<?xml version="1.0" standalone="no"?><!DOCTYPE svg PUBLIC "-//W3C//DTD SVG 1.1//EN" "http://www.w3.org/Graphics/SVG/1.1/DTD/svg11.dtd"><svg t="1687918022604" class="icon" viewBox="0 0 1024 1024" version="1.1" xmlns="http://www.w3.org/2000/svg" p-id="5191" xmlns:xlink="http://www.w3.org/1999/xlink" width="200" height="200"><path d="M264 578c-5.9 0-11-4.5-11-10.4V239.5c0-5.9 5.1-10.5 11-10.5h328.1c5.9 0 10.9 4.6 10.9 10.5V442h72V239.5c0-45.7-37.2-82.5-82.9-82.5H264c-45.7 0-83 36.8-83 82.5v328.1c0 45.7 37.3 82.4 83 82.4h70v-72h-70z" fill="#1296db" p-id="5192"></path><path d="M763.2 371H691v72h72.2c5.9 0 10.8 4.6 10.8 10.5v328.1c0 5.9-4.9 11.4-10.8 11.4H435.1c-5.9 0-11.1-5.5-11.1-11.4V579h-72v202.6c0 45.7 37.4 83.4 83.1 83.4h328.1c45.7 0 82.8-37.7 82.8-83.4V453.5c0-45.7-37.1-82.5-82.8-82.5z" fill="#1296db" p-id="5193"></path><path d="M607.6 648.1c-9.2 0-18.4-3.5-25.5-10.5L382.6 438.1c-14.1-14.1-14.1-36.9 0-50.9 14.1-14.1 36.9-14.1 50.9 0L633 586.6c14.1 14.1 14.1 36.9 0 50.9-7 7.1-16.2 10.6-25.4 10.6z" fill="#1296db" p-id="5194"></path></svg>