<?xml version="1.0" standalone="no"?><!DOCTYPE svg PUBLIC "-//W3C//DTD SVG 1.1//EN" "http://www.w3.org/Graphics/SVG/1.1/DTD/svg11.dtd"><svg t="1668240831091" class="icon" viewBox="0 0 1024 1024" version="1.1" xmlns="http://www.w3.org/2000/svg" p-id="1567" xmlns:xlink="http://www.w3.org/1999/xlink" width="200" height="200"><path d="M508.5696 513.4336m-436.2752 0a436.2752 436.2752 0 1 0 872.5504 0 436.2752 436.2752 0 1 0-872.5504 0Z" fill="#C0EFFF" p-id="1568"></path><path d="M665.7536 814.9504h-271.872c-82.8416 0-150.016-67.1744-150.016-150.016V321.8432c0-59.136 47.9232-107.1104 107.1104-107.1104h271.8208c82.8416 0 150.016 67.1744 150.016 150.016v343.0912c0 59.136-47.9232 107.1104-107.0592 107.1104z" fill="#6FCBF6" p-id="1569"></path><path d="M594.3808 315.0336H346.624c-56.7296 0-102.7072 45.9776-102.7072 102.7072v218.7776c0 98.56 79.872 178.432 178.432 178.432h247.7568c56.7296 0 102.7072-45.9776 102.7072-102.7072V493.4656c0-98.56-79.872-178.432-178.432-178.432z" fill="#68BEF3" p-id="1570"></path><path d="M594.3808 415.3344H346.624c-56.7296 0-102.7072 45.9776-102.7072 102.7072v118.4768c0 98.56 79.872 178.432 178.432 178.432h247.7568c56.7296 0 102.7072-45.9776 102.7072-102.7072v-118.4768c0-98.56-79.872-178.432-178.432-178.432z" fill="#5CAAF0" p-id="1571"></path><path d="M594.3808 515.584H346.624c-56.7296 0-102.7072 45.9776-102.7072 102.7072v46.6432c0 82.8416 67.1744 150.016 150.016 150.016h271.8208c59.136 0 107.1104-47.9232 107.1104-107.1104v-13.824c-0.0512-98.56-79.9232-178.432-178.4832-178.432z" fill="#4F94EB" p-id="1572"></path><path d="M346.624 615.8848c-48.4352 0-88.9344 33.5872-99.7888 78.6944 13.7728 68.6592 74.3424 120.3712 147.0464 120.3712h271.8208c45.9264 0 85.0432-28.9792 100.1984-69.632-21.2992-74.7008-90.0096-129.4336-171.5712-129.4336H346.624z" fill="#3A8CE6" p-id="1573"></path><path d="M626.944 392.0896H389.7856c-16.9472 0-30.72-13.7728-30.72-30.72s13.7728-30.72 30.72-30.72h237.1072c16.9472 0 30.72 13.7728 30.72 30.72s-13.7216 30.72-30.6688 30.72zM550.8608 536.7296H389.7856c-16.9472 0-30.72-13.7728-30.72-30.72s13.7728-30.72 30.72-30.72h161.024c16.9472 0 30.72 13.7728 30.72 30.72s-13.7216 30.72-30.6688 30.72z" fill="#FFFFFF" p-id="1574"></path></svg>