<?xml version="1.0" standalone="no"?><!DOCTYPE svg PUBLIC "-//W3C//DTD SVG 1.1//EN" "http://www.w3.org/Graphics/SVG/1.1/DTD/svg11.dtd"><svg t="1668232521665" class="icon" viewBox="0 0 1024 1024" version="1.1" xmlns="http://www.w3.org/2000/svg" p-id="979" xmlns:xlink="http://www.w3.org/1999/xlink" width="200" height="200"><path d="M512 512m-237.568 0a237.568 237.568 0 1 0 475.136 0 237.568 237.568 0 1 0-475.136 0Z" fill="#FFD500" p-id="980"></path><path d="M357.376 249.856c2.56 5.12 7.68 8.192 13.312 8.192 2.048 0 4.608-0.512 6.656-1.536 7.168-3.584 10.24-12.8 6.656-19.968l-25.088-50.688c-3.584-7.168-12.8-10.24-19.968-6.656s-10.24 12.8-6.656 19.968l25.088 50.688zM222.208 436.736c6.144 0 11.776-4.096 13.824-10.24 2.56-7.68-1.536-16.384-9.216-18.944l-53.76-17.92c-7.68-2.56-16.384 1.536-18.944 9.216s1.536 16.384 9.216 18.944l53.76 17.92c1.536 0.512 3.584 1.024 5.12 1.024zM236.544 640l-50.688 25.088c-7.168 3.584-10.24 12.8-6.656 19.968 2.56 5.12 7.68 8.192 13.312 8.192 2.048 0 4.608-0.512 6.656-1.536l50.688-25.088c7.168-3.584 10.24-12.8 6.656-19.968-4.096-7.168-12.8-10.24-19.968-6.656zM426.496 787.968c-7.68-2.56-16.384 1.536-18.944 9.216l-17.92 53.76c-2.56 7.68 1.536 16.384 9.216 18.944 1.536 0.512 3.072 0.512 4.608 0.512 6.144 0 11.776-4.096 13.824-10.24l17.92-53.76c3.072-7.68-1.024-15.872-8.704-18.432zM666.624 774.144c-3.584-7.168-12.8-10.24-19.968-6.656s-10.24 12.8-6.656 19.968l25.088 50.688c2.56 5.12 7.68 8.192 13.312 8.192 2.048 0 4.608-0.512 6.656-1.536 7.168-3.584 10.24-12.8 6.656-19.968l-25.088-50.688zM860.16 606.208l-53.76-17.92c-7.68-2.56-16.384 1.536-18.944 9.216s1.536 16.384 9.216 18.944l53.76 17.92c1.536 0.512 3.072 0.512 4.608 0.512 6.144 0 11.776-4.096 13.824-10.24 3.584-7.68-1.024-15.872-8.704-18.432zM838.144 358.912c7.168-3.584 10.24-12.8 6.656-19.968s-12.8-10.24-19.968-6.656l-50.688 25.088c-7.168 3.584-10.24 12.8-6.656 19.968 2.56 5.12 7.68 8.192 13.312 8.192 2.048 0 4.608-0.512 6.656-1.536l50.688-25.088zM597.504 236.032c1.536 0.512 3.072 0.512 4.608 0.512 6.144 0 11.776-4.096 13.824-10.24l17.92-53.76c2.56-7.68-1.536-16.384-9.216-18.944s-16.384 1.536-18.944 9.216l-17.92 53.76c-2.048 8.704 2.048 16.896 9.728 19.456z" fill="#FFD500" p-id="981"></path><path d="M512 274.432c-131.072 0-237.568 106.496-237.568 237.568v7.68c32.768 0 57.856-17.92 69.632-42.496 28.16-58.368 70.144-74.24 184.32-80.384 88.576-4.608 109.056-56.32 113.664-83.456-37.376-24.576-81.92-38.912-130.048-38.912z" fill="#FFED78" p-id="982"></path><path d="M525.824 599.04c-119.808-18.432-153.6 65.024-152.576 105.472 38.912 28.16 87.04 45.056 139.264 45.056 4.096 0 7.68 0 11.776-0.512 1.536 0 2.56 0 3.584-0.512 2.56 0 5.12-0.512 7.68-0.512 1.536 0 3.072-0.512 4.608-0.512 2.048-0.512 4.608-0.512 6.656-1.024 1.536 0 3.072-0.512 5.12-1.024s4.096-0.512 6.656-1.024c1.536-0.512 3.584-0.512 5.12-1.024l6.144-1.536c1.536-0.512 3.584-1.024 5.12-1.536 2.048-0.512 4.096-1.024 5.632-1.536 1.536-0.512 3.584-1.024 5.12-1.536 2.048-0.512 3.584-1.024 5.632-2.048 1.536-0.512 3.584-1.024 5.12-2.048 1.536-0.512 3.584-1.536 5.12-2.048 1.536-0.512 3.584-1.536 5.12-2.048 1.536-0.512 3.072-1.536 5.12-2.048 1.536-1.024 3.584-1.536 5.12-2.56 1.536-0.512 3.072-1.536 4.608-2.56 1.536-1.024 3.584-2.048 5.12-2.56 1.536-0.512 2.56-1.536 4.096-2.048 2.048-1.024 3.584-2.048 5.632-3.072 1.024-0.512 1.536-1.024 2.56-1.536 10.752-6.656 20.992-14.336 30.208-22.528 0.512-0.512 1.024-1.024 1.536-1.024 2.048-2.048 4.096-4.096 6.144-5.632l1.536-1.536c2.048-2.048 4.096-4.096 5.632-6.144l1.536-1.536c2.048-2.048 3.584-4.096 5.632-6.144l1.536-1.536c2.048-2.048 3.584-4.608 5.632-6.656l1.536-1.536c2.048-2.56 3.584-4.608 5.12-7.168 0.512-0.512 0.512-1.024 1.024-1.536 1.536-2.56 3.584-5.12 5.12-7.68 0-0.512 0.512-0.512 0.512-1.024 1.536-2.56 3.584-5.632 5.12-8.192v-0.512c15.872-27.648 26.624-58.368 30.72-91.648-23.04 39.936-83.968 79.36-221.696 58.368z" fill="#FFED78" p-id="983"></path></svg>