<?xml version="1.0" standalone="no"?><!DOCTYPE svg PUBLIC "-//W3C//DTD SVG 1.1//EN" "http://www.w3.org/Graphics/SVG/1.1/DTD/svg11.dtd"><svg t="1721826582003" class="icon" viewBox="0 0 1024 1024" version="1.1" xmlns="http://www.w3.org/2000/svg" p-id="7284" xmlns:xlink="http://www.w3.org/1999/xlink" width="200" height="200"><path d="M284.587 0.32h454.829c157 0 284.264 127.264 284.264 284.266v454.83c0 156.999-127.264 284.264-284.264 284.264H284.587C127.585 1023.68 0.321 896.415 0.321 739.416v-454.83C0.321 127.584 127.585 0.32 284.587 0.32z m227.417 867.012c196.238 0 355.33-159.091 355.33-355.329 0-196.245-159.092-355.335-355.33-355.335-196.245 0-355.336 159.09-355.336 355.335 0 196.238 159.091 355.329 355.336 355.329z" fill="#0d66e4" p-id="7285"></path><path d="M615.178 564.275c-12.383 0-21.324-8.252-21.324-21.322s8.254-21.321 21.324-21.321c12.379 0 21.32 8.251 21.32 21.321s-8.941 21.322-21.32 21.322z m0 0" fill="#0d66e4" p-id="7286"></path><path d="M663.324 274.697H360.679c-11.693 0-20.636 8.942-20.636 20.635v433.335c0 11.694 8.942 20.636 20.636 20.636h302.645c11.693 0 20.635-8.941 20.635-20.636V295.332c0-11.693-8.941-20.635-20.635-20.635zM529.197 556.708c-9.631 0-17.196-7.566-17.196-17.195 0-9.63 7.565-17.194 17.196-17.194 9.629 0 17.195 7.564 17.195 17.194 0.001 9.629-7.566 17.195-17.195 17.195z m85.981 20.639c-18.574 0-34.393-15.134-34.393-34.394 0-19.258 15.133-34.394 34.393-34.394 18.57 0 34.393 15.133 34.393 34.394-0.001 19.26-15.823 34.394-34.393 34.394z m34.392-96.301H374.436v-68.783H649.57v68.783z m0-103.174H374.436V309.09H649.57v68.782z m0 0" fill="#0d66e4" p-id="7287"></path></svg>